# Blender v2.82 (sub 7) OBJ File: 'Vaccine.blend'
# www.blender.org
mtllib Vaccine.mtl
o Plane
v 0.000000 -15.788893 0.000000
v 0.000000 -6.741817 0.000000
v -0.684296 -6.707422 -0.000070
v 0.689972 -6.710139 -0.000070
v -0.191967 -6.741440 0.000000
v 0.195796 -6.745815 0.000000
v 0.000000 -6.749279 -0.210107
v 0.000000 -6.747456 0.203270
v -0.818055 -6.591577 -0.000085
v 0.820074 -6.594816 -0.000085
v 0.000348 -6.711752 -0.690286
v 0.000348 -6.713953 0.688572
v 0.000290 -6.600862 -0.821699
v 0.000290 -6.603486 0.821902
v -0.191967 5.730229 0.000000
v 0.000000 5.722391 -0.210107
v 0.000000 5.724215 0.203270
v 0.195796 5.725855 0.000000
v 0.000000 -6.551745 -0.210107
v 0.195796 -6.548282 0.000000
v 0.000000 -6.549922 0.203270
v -0.191967 -6.543907 0.000000
v 0.943115 -6.394315 -0.000086
v 0.000233 -6.401269 -0.945072
v -0.940993 -6.390590 -0.000086
v 0.000233 -6.404287 0.945330
v 0.198898 -6.365649 0.000014
v -0.000013 -6.367315 0.206518
v -0.195034 -6.361204 0.000014
v -0.000013 -6.369167 -0.213436
v 0.992201 -6.102297 -0.000091
v 0.000212 -6.109614 -0.994294
v -0.990036 -6.098379 -0.000091
v 0.000212 -6.112788 0.994564
v 0.198898 -6.102625 0.000014
v -0.000013 -6.104291 0.206518
v -0.195034 -6.098180 0.000014
v -0.000013 -6.106143 -0.213436
v 0.851875 -5.841273 -0.000075
v 0.000273 -5.847554 -0.853578
v -0.849834 -5.837909 -0.000075
v 0.000273 -5.850279 0.853816
v 0.198898 -5.874697 0.000014
v -0.000013 -5.876364 0.206518
v -0.195034 -5.870253 0.000014
v -0.000013 -5.878216 -0.213436
v 0.713474 -5.558912 -0.000060
v 0.000334 -5.564172 -0.714791
v -0.711554 -5.556095 -0.000060
v 0.000334 -5.566454 0.714998
v 0.198898 -5.567788 0.000014
v -0.000013 -5.569454 0.206518
v -0.195034 -5.563343 0.000014
v -0.000013 -5.571306 -0.213436
v 0.713474 -5.359386 -0.000060
v 0.000334 -5.364646 -0.714791
v -0.711554 -5.356569 -0.000060
v 0.000334 -5.366928 0.714998
v 0.198898 -5.329522 0.000014
v -0.000013 -5.331188 0.206518
v -0.195034 -5.325077 0.000014
v -0.000013 -5.333040 -0.213436
v 0.888942 -5.249358 -0.000080
v 0.000257 -5.255912 -0.890747
v -0.886867 -5.245847 -0.000080
v 0.000257 -5.258757 0.890994
v 0.198898 -5.207299 0.000014
v -0.000013 -5.208965 0.206518
v -0.195034 -5.202854 0.000014
v -0.000013 -5.210817 -0.213436
v 1.077799 -5.128653 -0.000101
v 0.000174 -5.136600 -1.080131
v -1.075559 -5.124396 -0.000101
v 0.000174 -5.140049 1.080421
v 0.198898 -5.103226 0.000014
v -0.000013 -5.104893 0.206518
v -0.195034 -5.098782 0.000014
v -0.000013 -5.106745 -0.213436
v 1.077799 -5.018608 -0.000101
v 0.000174 -5.026556 -1.080131
v -1.075559 -5.014351 -0.000101
v 0.000174 -5.030005 1.080421
v 0.198898 -5.012475 0.000014
v -0.000013 -5.014142 0.206518
v -0.195034 -5.008031 0.000014
v -0.000013 -5.015994 -0.213436
v 0.000000 -4.559143 -0.210107
v 0.000000 -4.557320 0.203270
v 0.195796 -4.555679 0.000000
v -0.191967 -4.551304 0.000000
v -1.299882 5.730229 0.011143
v -0.011293 5.722391 -1.318020
v -0.011218 5.724215 1.311184
v 1.303709 5.725855 0.011249
v 0.000539 -4.559143 -1.318077
v 0.000393 -4.557320 1.311241
v 1.303744 -4.555679 0.007075
v -1.299915 -4.551304 0.007196
v 0.971293 -4.695505 -0.133340
v 1.303742 -4.556767 0.007075
v 0.971738 -4.695314 0.143417
v 0.256151 -4.697435 -0.137888
v 0.254072 -4.696251 0.138830
v 0.195794 -4.556745 0.000001
v 0.138177 -4.696158 -0.264481
v -0.000002 -4.560207 -0.210106
v -0.138436 -4.692956 -0.263780
v 0.138546 -4.698237 -0.980111
v -0.138201 -4.697770 -0.979247
v 0.000537 -4.560230 -1.318077
v 0.138187 -4.695622 0.259139
v -0.138490 -4.692446 0.258407
v -0.000002 -4.558384 0.203271
v -0.191969 -4.552368 0.000001
v -0.251470 -4.694834 0.138787
v -0.253566 -4.695956 -0.137797
v 0.138446 -4.696608 0.977230
v 0.000391 -4.558407 1.311242
v -0.138302 -4.696141 0.976463
v -0.968354 -4.691589 -0.133250
v -0.968873 -4.691401 0.143504
v -1.299916 -4.552391 0.007196
v -2.108814 6.005026 0.015674
v -0.015429 5.992291 -2.143626
v -0.015308 5.995254 2.127664
v 2.120867 5.997919 0.015846
v -2.809968 6.322851 0.019601
v -0.019014 6.305874 -2.859233
v -0.018852 6.309823 2.835360
v 2.829150 6.313376 0.019830
v -3.187838 6.324181 0.021717
v -0.020946 6.304916 -3.244892
v -0.020762 6.309398 3.216754
v 3.210861 6.313430 0.021978
v -3.616255 6.325687 0.024116
v -0.023136 6.303831 -3.682140
v -0.022928 6.308915 3.649168
v 3.643635 6.313490 0.024412
v -3.616255 6.398102 0.024116
v -0.023136 6.376245 -3.682140
v -0.022928 6.381330 3.649168
v 3.643635 6.385904 0.024412
v -3.480475 6.464690 0.023462
v -0.003637 6.443541 -3.562852
v -0.003436 6.448461 3.531200
v 3.544469 6.452888 0.023748
v -2.831886 6.553131 0.019829
v -0.000321 6.535907 -2.900893
v -0.000157 6.539914 2.876559
v 2.889285 6.543519 0.020062
v -2.144077 6.550712 0.015977
v 0.003196 6.537649 -2.198907
v 0.003320 6.540689 2.182333
v 2.194483 6.543422 0.016154
v -2.144077 6.606612 0.015977
v 0.003196 6.593550 -2.198907
v 0.003320 6.596589 2.182333
v 2.194483 6.599322 0.016154
v -0.984770 6.602533 0.009484
v 0.009123 6.596487 -1.015703
v 0.009180 6.597894 1.012210
v 1.023388 6.599158 0.009566
v -0.487823 6.599509 -0.503109
v -0.487795 6.600214 0.510847
v 0.516284 6.598527 0.510888
v 0.516255 6.597822 -0.503068
v 0.009123 11.251358 -1.015703
v 0.009180 11.252766 1.012210
v -0.984770 11.257404 0.009484
v 1.023388 11.254030 0.009566
v 0.004271 11.347309 -1.984286
v 0.004383 11.350054 1.970085
v -1.933790 11.359100 0.014799
v 1.982059 11.352520 0.014959
v 0.001907 11.431299 -2.456114
v 0.002046 11.434694 2.436697
v -2.396090 11.445889 0.017389
v 2.449058 11.437746 0.017586
v 0.004300 11.522301 -1.978477
v 0.004412 11.525036 1.964339
v -1.928098 11.534058 0.014768
v 1.976309 11.527494 0.014927
v 0.007287 11.568689 -1.382080
v 0.007366 11.570602 1.374536
v -1.343747 11.576910 0.011495
v 1.386015 11.572321 0.011606
v 0.010508 11.643404 -0.739227
v 0.010550 11.644430 0.738790
v -0.713877 11.647812 0.007967
v 0.749742 11.645351 0.008027
vt 0.000000 0.000000
vt 0.000000 0.000000
vt 0.000000 0.000000
vt 0.000000 0.000000
vt 0.000000 0.000000
vt 0.000000 0.000000
vt 0.000000 0.000000
vt 0.000000 0.000000
vt 0.000000 0.000000
vt 0.000000 0.000000
vt 0.000000 0.000000
vt 0.000000 0.000000
vt 0.000000 0.000000
vt 0.000000 0.000000
vt 0.000000 0.000000
vt 0.000000 0.000000
vt 0.000000 0.000000
vt 0.000000 0.000000
vt 0.000000 0.000000
vt 0.000000 0.000000
vt 0.000000 0.000000
vt 0.000000 0.000000
vt 0.000000 0.000000
vt 0.000000 0.000000
vt 0.000000 0.000000
vt 0.000000 0.000000
vt 0.000000 0.000000
vt 0.000000 0.000000
vt 0.000000 0.000000
vt 0.000000 0.000000
vt 0.000000 0.000000
vt 0.000000 0.000000
vt 0.000000 0.000000
vt 0.000000 0.000000
vt 0.000000 0.000000
vt 0.000000 0.000000
vt 0.000000 0.000000
vt 0.000000 0.000000
vt 0.000000 0.000000
vt 0.000000 0.000000
vt 0.000000 0.000000
vt 0.000000 0.000000
vt 0.000000 0.000000
vt 0.000000 0.000000
vt 0.000000 0.000000
vt 0.000000 0.000000
vt 0.000000 0.000000
vt 0.000000 0.000000
vt 0.000000 0.000000
vt 0.000000 0.000000
vt 0.000000 0.000000
vt 0.000000 0.000000
vt 0.000000 0.000000
vt 0.000000 0.000000
vt 0.000000 0.000000
vt 0.000000 0.000000
vt 0.000000 0.000000
vt 0.000000 0.000000
vt 0.000000 0.000000
vt 0.000000 0.000000
vt 0.000000 0.000000
vt 0.000000 0.000000
vt 0.000000 0.000000
vt 0.000000 0.000000
vt 0.000000 0.000000
vt 0.000000 0.000000
vt 0.000000 0.000000
vt 0.000000 0.000000
vt 0.000000 0.000000
vt 0.000000 0.000000
vt 0.000000 0.000000
vt 0.000000 0.000000
vt 0.000000 0.000000
vt 0.000000 0.000000
vt 0.000000 0.000000
vt 0.000000 0.000000
vt 0.000000 0.000000
vt 0.000000 0.000000
vt 0.000000 0.000000
vt 0.000000 0.000000
vt 0.000000 0.000000
vt 0.000000 0.000000
vt 0.000000 0.000000
vt 0.000000 0.000000
vt 0.000000 0.000000
vt 0.000000 0.000000
vt 0.000000 0.000000
vt 0.000000 0.000000
vt 0.000000 0.000000
vt 0.000000 0.000000
vt 0.000000 0.000000
vt 0.000000 0.000000
vt 0.000000 0.000000
vt 0.000000 0.000000
vt 0.000000 0.000000
vt 0.000000 0.000000
vt 0.000000 0.000000
vt 0.000000 0.000000
vt 0.000000 0.000000
vt 0.000000 0.000000
vt 0.000000 0.000000
vt 0.000000 0.000000
vt 0.000000 0.000000
vt 0.000000 0.000000
vt 0.000000 0.000000
vt 0.000000 0.000000
vt 0.000000 0.000000
vt 0.000000 0.000000
vt 0.000000 0.000000
vt 0.000000 0.000000
vt 0.000000 0.000000
vt 0.000000 0.000000
vt 0.000000 0.000000
vt 0.000000 0.000000
vt 0.000000 0.000000
vt 0.000000 0.000000
vt 0.000000 0.000000
vt 0.000000 0.000000
vt 0.000000 0.000000
vt 0.000000 0.000000
vt 0.000000 0.000000
vt 0.000000 0.000000
vt 0.000000 0.000000
vt 0.000000 0.000000
vt 0.000000 0.000000
vt 0.000000 0.000000
vt 0.000000 0.000000
vt 0.000000 0.000000
vt 0.000000 0.000000
vt 0.000000 0.000000
vt 0.000000 0.000000
vt 0.000000 0.000000
vt 0.000000 0.000000
vt 0.000000 0.000000
vt 0.000000 0.000000
vt 0.000000 0.000000
vt 0.000000 0.000000
vt 0.000000 0.000000
vt 0.000000 0.000000
vt 0.000000 0.000000
vt 0.000000 0.000000
vt 0.000000 0.000000
vt 0.000000 0.000000
vt 0.000000 0.000000
vt 0.000000 0.000000
vt 0.000000 0.000000
vt 0.000000 0.000000
vt 0.000000 0.000000
vt 0.000000 0.000000
vt 0.000000 0.000000
vt 0.000000 0.000000
vt 0.000000 0.000000
vt 0.000000 0.000000
vt 0.000000 0.000000
vt 0.000000 0.000000
vt 0.000000 0.000000
vt 0.000000 0.000000
vt 0.000000 0.000000
vt 0.000000 0.000000
vt 0.000000 0.000000
vt 0.000000 0.000000
vt 0.000000 0.000000
vt 0.000000 0.000000
vt 0.000000 0.000000
vt 0.000000 0.000000
vt 0.000000 0.000000
vt 0.000000 0.000000
vt 0.000000 0.000000
vt 0.000000 0.000000
vt 0.000000 0.000000
vt 0.000000 0.000000
vt 0.000000 0.000000
vt 0.000000 0.000000
vt 0.000000 0.000000
vt 0.000000 0.000000
vt 0.000000 0.000000
vt 0.000000 0.000000
vt 0.000000 0.000000
vt 0.000000 0.000000
vt 0.000000 0.000000
vt 0.000000 0.000000
vt 0.000000 0.000000
vt 0.000000 0.000000
vt 0.000000 0.000000
vt 0.000000 0.000000
vt 0.000000 0.000000
vt 0.000000 0.000000
vt 0.000000 0.000000
vt 0.000000 0.000000
vn -0.0013 -1.0000 0.0020
vn 0.5481 0.6408 -0.5375
vn 0.7316 -0.0158 -0.6815
vn 0.7202 -0.0156 0.6936
vn -0.7272 -0.0154 0.6863
vn -0.7385 -0.0157 -0.6741
vn 0.0735 -0.9950 0.0669
vn -0.0764 -0.9952 0.0611
vn -0.0809 -0.9946 -0.0653
vn 0.0781 -0.9944 -0.0712
vn 0.5484 -0.6362 0.5427
vn 0.5495 -0.6328 -0.5455
vn 0.5493 0.6374 0.5403
vn 0.0113 0.9999 -0.0044
vn 0.0040 1.0000 0.0040
vn 0.0006 -1.0000 0.0009
vn -0.0023 1.0000 -0.0023
vn 0.7202 0.0000 0.6937
vn -0.7383 0.0000 -0.6745
vn -0.7270 0.0000 0.6866
vn 0.7316 0.0000 -0.6818
vn 0.6520 0.3988 0.6449
vn 0.6526 0.3992 -0.6440
vn -0.7202 0.0123 -0.6936
vn -0.7272 -0.0123 0.6864
vn 0.7042 0.1182 0.7001
vn 0.7037 -0.1183 0.7006
vn -0.7316 0.0000 0.6818
vn 0.6505 -0.3992 -0.6461
vn -0.7316 0.0124 0.6816
vn -0.7384 -0.0123 -0.6742
vn 0.6512 -0.3996 0.6452
vn 0.6605 0.3551 -0.6616
vn 0.6599 -0.3552 -0.6621
vn -0.7202 0.0000 -0.6937
vn 0.7046 0.1182 -0.6997
vn 0.7034 -0.1182 -0.7009
vn 0.6677 0.3273 -0.6686
vn 0.6672 -0.3274 -0.6690
vn 0.6601 0.3548 0.6621
vn 0.6602 -0.3554 0.6616
vn 0.7085 0.0000 0.7057
vn 0.7081 0.0000 0.7062
vn 0.6674 0.3271 0.6690
vn 0.6676 -0.3276 0.6686
vn 0.4733 0.7495 0.4629
vn 0.4712 -0.7514 0.4620
vn 0.7087 0.0000 -0.7055
vn 0.7079 0.0000 -0.7063
vn 0.4756 -0.7442 -0.4690
vn 0.4789 0.7440 -0.4660
vn 0.4739 0.7503 -0.4609
vn 0.4706 -0.7505 -0.4640
vn 0.4762 -0.7450 0.4671
vn 0.4783 0.7431 0.4680
vn 0.0075 0.9998 0.0176
vn 0.0052 0.9999 -0.0140
vn 0.0019 -0.9998 0.0175
vn 0.0042 -0.9998 -0.0211
vn 0.7119 0.0006 -0.7022
vn -0.7092 -0.0005 0.7050
vn -0.7159 -0.0003 -0.6982
vn 0.7052 0.0003 0.7090
vn -0.0011 1.0000 0.0011
vn 0.7382 -0.0007 0.6745
vn 0.0051 1.0000 -0.0052
vn -0.7139 0.0006 -0.7003
vn -0.7202 0.0006 -0.6938
vn -0.7081 0.0014 0.7061
vn 0.7128 -0.0015 -0.7014
vn 0.7073 -0.0006 0.7069
vn 0.7271 -0.0015 -0.6866
vn -0.0011 -1.0000 -0.0014
vn -0.7318 0.0015 0.6816
vn 0.3851 -0.9229 0.0000
vn -0.9208 -0.3899 -0.0052
vn -0.0020 -0.3731 0.9278
vn -0.0027 -0.9262 -0.3771
vn -0.0019 -0.3787 -0.9255
vn 0.9209 -0.3899 -0.0054
vn -0.0026 -0.9244 0.3814
vn -0.3871 -0.9220 -0.0001
vn 0.0020 -1.0000 0.0025
vn -0.0066 -1.0000 0.0048
vn -0.5083 -0.7069 -0.4918
vn 0.5164 -0.7078 0.4820
vn 0.5095 -0.7079 -0.4892
vn -0.5153 -0.7067 0.4848
vn 0.5005 -0.7073 0.4992
vn -0.5072 -0.7069 -0.4931
vn -0.5029 -0.7066 0.4979
vn 0.5048 -0.7076 -0.4944
vn -0.0054 -1.0000 0.0024
vn -0.0066 -1.0000 -0.0033
vn 0.0003 -1.0000 -0.0004
vn 0.3031 -0.9053 -0.2975
vn -0.3055 -0.9042 0.2986
vn -0.2996 0.9050 -0.3019
vn 0.3089 0.9045 0.2941
vn -0.3812 -0.8455 0.3739
vn -0.3749 0.8465 -0.3781
vn 0.3855 0.8458 0.3687
vn 0.3792 -0.8468 -0.3730
vn -0.0001 1.0000 0.0011
vn 0.0035 1.0000 -0.0025
vn 0.0001 -1.0000 0.0025
vn -0.0035 -1.0000 -0.0011
vn -0.7030 0.0000 -0.7111
vn 0.7180 0.0000 0.6961
vn 0.7109 0.0000 -0.7033
vn -0.7102 0.0000 0.7040
vn -0.4852 -0.7231 -0.4917
vn 0.4055 -0.8229 0.3980
vn 0.4909 0.7220 -0.4876
vn -0.4016 0.8229 0.4019
vn 0.1365 0.9810 -0.1376
vn -0.1331 0.9817 0.1365
vn -0.1350 -0.9812 -0.1378
vn 0.1346 -0.9815 0.1363
vn 0.0001 -1.0000 -0.0011
vn -0.0035 -1.0000 0.0025
vn -0.0001 1.0000 -0.0025
vn 0.0035 1.0000 0.0011
vn -0.7030 0.0000 -0.7112
vn -0.7109 0.0000 0.7033
vn 0.7102 0.0000 -0.7040
vn 0.1055 0.9894 -0.1000
vn -0.1011 0.9897 -0.1010
vn 0.1066 0.9895 0.0975
vn -0.1022 0.9899 0.0986
vn -0.1778 0.9687 0.1733
vn -0.1758 0.9685 -0.1766
vn 0.1827 0.9681 0.1714
vn 0.1807 0.9679 -0.1747
vn 0.1830 -0.9659 0.1831
vn 0.1810 -0.9661 -0.1839
vn -0.1843 -0.9653 0.1848
vn -0.1823 -0.9656 -0.1856
vn -0.0759 -0.9941 0.0777
vn -0.0751 -0.9942 -0.0772
vn 0.0733 -0.9943 0.0770
vn 0.0725 -0.9944 -0.0765
vn -0.1139 -0.9868 0.1153
vn -0.1126 -0.9869 -0.1152
vn 0.1118 -0.9872 0.1142
vn 0.1105 -0.9873 -0.1141
vn -0.0017 -1.0000 0.0007
usemtl None
s off
f 107/1/1 116/2/1 120/3/1 109/4/1
f 9/5/2 14/6/2 12/7/2 3/8/2
f 6/9/3 1/10/3 7/11/3
f 6/9/4 8/12/4 1/10/4
f 1/10/5 8/12/5 5/13/5
f 1/10/6 5/13/6 7/11/6
f 4/14/7 12/7/7 8/12/7 6/9/7
f 12/7/8 3/8/8 5/13/8 8/12/8
f 3/8/9 11/15/9 7/11/9 5/13/9
f 11/15/10 4/14/10 6/9/10 7/11/10
f 10/16/11 14/6/11 12/7/11 4/14/11
f 10/16/12 4/14/12 11/15/12 13/17/12
f 9/5/13 3/8/13 11/15/13 13/17/13
f 15/18/14 17/19/14 18/20/14 16/21/14
f 17/19/15 15/18/15 91/22/15 93/23/15
f 102/24/16 105/25/16 108/26/16 99/27/16
f 16/21/17 18/20/17 94/28/17 92/29/17
f 8/12/18 6/9/18 20/30/18 21/31/18
f 7/11/19 5/13/19 22/32/19 19/33/19
f 5/13/20 8/12/20 21/31/20 22/32/20
f 6/9/21 7/11/21 19/33/21 20/30/21
f 9/5/22 13/17/22 24/34/22 25/35/22
f 14/6/23 9/5/23 25/35/23 26/36/23
f 20/30/24 21/31/24 28/37/24 27/38/24
f 22/32/25 21/31/25 28/37/25 29/39/25
f 25/35/26 24/34/26 32/40/26 33/41/26
f 26/36/27 23/42/27 31/43/27 34/44/27
f 30/45/19 29/39/19 37/46/19 38/47/19
f 30/45/28 27/38/28 35/48/28 38/47/28
f 10/16/29 13/17/29 24/34/29 23/42/29
f 19/33/30 20/30/30 27/38/30 30/45/30
f 19/33/31 22/32/31 29/39/31 30/45/31
f 14/6/32 10/16/32 23/42/32 26/36/32
f 38/47/19 37/46/19 45/49/19 46/50/19
f 38/47/28 35/48/28 43/51/28 46/50/28
f 31/43/33 32/40/33 40/52/33 39/53/33
f 34/44/34 33/41/34 41/54/34 42/55/34
f 29/39/20 28/37/20 36/56/20 37/46/20
f 27/38/35 28/37/35 36/56/35 35/48/35
f 26/36/36 25/35/36 33/41/36 34/44/36
f 23/42/37 24/34/37 32/40/37 31/43/37
f 39/53/38 40/52/38 48/57/38 47/58/38
f 42/55/39 41/54/39 49/59/39 50/60/39
f 43/51/35 44/61/35 52/62/35 51/63/35
f 45/49/20 44/61/20 52/62/20 53/64/20
f 34/44/40 31/43/40 39/53/40 42/55/40
f 33/41/41 32/40/41 40/52/41 41/54/41
f 37/46/20 36/56/20 44/61/20 45/49/20
f 35/48/35 36/56/35 44/61/35 43/51/35
f 51/63/35 52/62/35 60/65/35 59/66/35
f 53/64/20 52/62/20 60/65/20 61/67/20
f 49/59/42 48/57/42 56/68/42 57/69/42
f 50/60/43 47/58/43 55/70/43 58/71/43
f 46/50/28 43/51/28 51/63/28 54/72/28
f 46/50/19 45/49/19 53/64/19 54/72/19
f 42/55/44 39/53/44 47/58/44 50/60/44
f 41/54/45 40/52/45 48/57/45 49/59/45
f 57/69/46 56/68/46 64/73/46 65/74/46
f 58/71/47 55/70/47 63/75/47 66/76/47
f 62/77/19 61/67/19 69/78/19 70/79/19
f 62/77/28 59/66/28 67/80/28 70/79/28
f 50/60/48 49/59/48 57/69/48 58/71/48
f 47/58/49 48/57/49 56/68/49 55/70/49
f 54/72/28 51/63/28 59/66/28 62/77/28
f 54/72/19 53/64/19 61/67/19 62/77/19
f 70/79/28 67/80/28 75/81/28 78/82/28
f 63/75/50 64/73/50 72/83/50 71/84/50
f 66/76/51 65/74/51 73/85/51 74/86/51
f 67/80/35 68/87/35 76/88/35 75/81/35
f 61/67/20 60/65/20 68/87/20 69/78/20
f 59/66/35 60/65/35 68/87/35 67/80/35
f 58/71/52 57/69/52 65/74/52 66/76/52
f 55/70/53 56/68/53 64/73/53 63/75/53
f 71/84/49 72/83/49 80/89/49 79/90/49
f 74/86/48 73/85/48 81/91/48 82/92/48
f 75/81/35 76/88/35 84/93/35 83/94/35
f 77/95/20 76/88/20 84/93/20 85/96/20
f 70/79/19 69/78/19 77/95/19 78/82/19
f 66/76/54 63/75/54 71/84/54 74/86/54
f 65/74/55 64/73/55 72/83/55 73/85/55
f 69/78/20 68/87/20 76/88/20 77/95/20
f 82/92/56 79/90/56 83/94/56 84/93/56
f 79/90/57 80/89/57 86/97/57 83/94/57
f 81/91/58 80/89/58 86/97/58 85/96/58
f 82/92/59 81/91/59 85/96/59 84/93/59
f 78/82/28 75/81/28 83/94/28 86/97/28
f 78/82/19 77/95/19 85/96/19 86/97/19
f 74/86/43 71/84/43 79/90/43 82/92/43
f 73/85/42 72/83/42 80/89/42 81/91/42
f 21/31/18 20/30/18 89/98/18 88/99/18
f 19/33/19 22/32/19 90/100/19 87/101/19
f 22/32/20 21/31/20 88/99/20 90/100/20
f 20/30/21 19/33/21 87/101/21 89/98/21
f 97/102/60 95/103/60 92/29/60 94/28/60
f 98/104/61 96/105/61 93/23/61 91/22/61
f 95/103/62 98/104/62 91/22/62 92/29/62
f 96/105/63 97/102/63 94/28/63 93/23/63
f 18/20/64 17/19/64 93/23/64 94/28/64
f 87/101/65 90/100/65 114/106/65 106/107/65
f 15/18/66 16/21/66 92/29/66 91/22/66
f 98/104/67 95/103/67 110/108/67 122/109/67
f 88/99/68 89/98/68 104/110/68 113/111/68
f 96/105/69 98/104/69 122/109/69 118/112/69
f 95/103/70 97/102/70 100/113/70 110/108/70
f 97/102/71 96/105/71 118/112/71 100/113/71
f 90/100/72 88/99/72 113/111/72 114/106/72
f 115/114/73 112/115/73 119/116/73 121/117/73
f 89/98/74 87/101/74 106/107/74 104/110/74
f 99/27/75 100/113/75 101/118/75
f 102/24/76 103/119/76 104/110/76
f 105/25/77 106/107/77 107/1/77
f 108/26/78 109/4/78 110/108/78
f 111/120/79 112/115/79 113/111/79
f 114/106/80 115/114/80 116/2/80
f 117/121/81 118/112/81 119/116/81
f 120/3/82 121/117/82 122/109/82
f 101/118/83 103/119/83 102/24/83 99/27/83
f 107/1/84 109/4/84 108/26/84 105/25/84
f 103/119/85 111/120/85 113/111/85 104/110/85
f 116/2/86 107/1/86 106/107/86 114/106/86
f 112/115/87 115/114/87 114/106/87 113/111/87
f 105/25/88 102/24/88 104/110/88 106/107/88
f 100/113/89 118/112/89 117/121/89 101/118/89
f 122/109/90 110/108/90 109/4/90 120/3/90
f 118/112/91 122/109/91 121/117/91 119/116/91
f 110/108/92 100/113/92 99/27/92 108/26/92
f 115/114/93 121/117/93 120/3/93 116/2/93
f 111/120/94 117/121/94 119/116/94 112/115/94
f 111/120/95 103/119/95 101/118/95 117/121/95
f 94/28/96 92/29/96 124/122/96 126/123/96
f 91/22/97 93/23/97 125/124/97 123/125/97
f 94/28/98 93/23/98 125/124/98 126/123/98
f 91/22/99 92/29/99 124/122/99 123/125/99
f 123/125/100 125/124/100 129/126/100 127/127/100
f 126/123/101 125/124/101 129/126/101 130/128/101
f 123/125/102 124/122/102 128/129/102 127/127/102
f 126/123/103 124/122/103 128/129/103 130/128/103
f 130/128/104 129/126/104 133/130/104 134/131/104
f 127/127/105 128/129/105 132/132/105 131/133/105
f 130/128/106 128/129/106 132/132/106 134/131/106
f 127/127/107 129/126/107 133/130/107 131/133/107
f 134/131/106 132/132/106 136/134/106 138/135/106
f 131/133/107 133/130/107 137/136/107 135/137/107
f 134/131/104 133/130/104 137/136/104 138/135/104
f 131/133/105 132/132/105 136/134/105 135/137/105
f 138/135/108 137/136/108 141/138/108 142/139/108
f 135/137/109 136/134/109 140/140/109 139/141/109
f 138/135/110 136/134/110 140/140/110 142/139/110
f 135/137/111 137/136/111 141/138/111 139/141/111
f 142/139/112 141/138/112 145/142/112 146/143/112
f 139/141/113 140/140/113 144/144/113 143/145/113
f 142/139/114 140/140/114 144/144/114 146/143/114
f 139/141/115 141/138/115 145/142/115 143/145/115
f 146/143/116 144/144/116 148/146/116 150/147/116
f 143/145/117 145/142/117 149/148/117 147/149/117
f 146/143/118 145/142/118 149/148/118 150/147/118
f 143/145/119 144/144/119 148/146/119 147/149/119
f 150/147/120 149/148/120 153/150/120 154/151/120
f 147/149/121 148/146/121 152/152/121 151/153/121
f 150/147/122 148/146/122 152/152/122 154/151/122
f 147/149/123 149/148/123 153/150/123 151/153/123
f 151/153/109 152/152/109 156/154/109 155/155/109
f 154/151/110 152/152/110 156/154/110 158/156/110
f 151/153/111 153/150/111 157/157/111 155/155/111
f 154/151/124 153/150/124 157/157/124 158/156/124
f 158/156/122 156/154/122 160/158/122 166/159/122 162/160/122
f 155/155/123 157/157/123 161/161/123 164/162/123 159/163/123
f 158/156/120 157/157/120 161/161/120 165/164/120 162/160/120
f 155/155/121 156/154/121 160/158/121 163/165/121 159/163/121
f 170/166/125 167/167/125 160/158/125 162/160/125
f 168/168/126 161/161/126 159/163/126 169/169/126
f 168/168/108 170/166/108 162/160/108 161/161/108
f 167/167/109 169/169/109 159/163/109 160/158/109
f 168/168/127 169/169/127 173/170/127 172/171/127
f 170/166/128 168/168/128 172/171/128 174/172/128
f 169/169/129 167/167/129 171/173/129 173/170/129
f 167/167/130 170/166/130 174/172/130 171/173/130
f 171/173/131 174/172/131 178/174/131 175/175/131
f 174/172/132 172/171/132 176/176/132 178/174/132
f 173/170/133 171/173/133 175/175/133 177/177/133
f 172/171/134 173/170/134 177/177/134 176/176/134
f 177/177/135 175/175/135 179/178/135 181/179/135
f 176/176/136 177/177/136 181/179/136 180/180/136
f 175/175/137 178/174/137 182/181/137 179/178/137
f 178/174/138 176/176/138 180/180/138 182/181/138
f 179/178/139 182/181/139 186/182/139 183/183/139
f 182/181/140 180/180/140 184/184/140 186/182/140
f 181/179/141 179/178/141 183/183/141 185/185/141
f 180/180/142 181/179/142 185/185/142 184/184/142
f 183/183/143 186/182/143 190/186/143 187/187/143
f 186/182/144 184/184/144 188/188/144 190/186/144
f 185/185/145 183/183/145 187/187/145 189/189/145
f 184/184/146 185/185/146 189/189/146 188/188/146
f 188/188/147 189/189/147 187/187/147 190/186/147
l 1 2
l 2 3
l 2 4
